<svg xmlns="http://www.w3.org/2000/svg" width="48" height="48" fill-rule="evenodd" viewBox="0 0 48 48"><path id="antenna-stalk" fill="#2B2620" d="M19.4 7.56a1.4 1.4 0 0 1 1.87.65l3.16 6.47a1.4 1.4 0 0 1-2.52 1.23l-3.16-6.48a1.4 1.4 0 0 1 .65-1.87"/><path id="antenna-tip" fill="#2B2620" d="M17.16 2.98a3.8 3.8 0 1 1 3.33 6.82 3.8 3.8 0 0 1-3.33-6.82"/><circle id="eye-left" cx="14.5" cy="26.5" r="7.5" fill="#F3E9D2" stroke="#2B2620" stroke-width="2"/><circle id="pupil-left" cx="14.5" cy="26.5" r="3.1" fill="#2B2620"/><ellipse id="eye-right" cx="33" cy="24.5" fill="#F3E9D2" stroke="#2B2620" stroke-width="2" rx="6" ry="4.2"/><circle id="pupil-right" cx="33" cy="24.5" r="2.5" fill="#2B2620"/><path id="mouth" fill="none" stroke="#2B2620" stroke-width="3" d="M16 40.5c3-3.7 5.5 2.7 8.5-.9s5.5 2.4 8-1"/></svg>