<svg xmlns="http://www.w3.org/2000/svg" viewBox="0 0 1534 332" width="1534" height="332" role="img" aria-labelledby="journey-title" font-family="system-ui, sans-serif" font-size="11" fill="currentColor" stroke="currentColor">
<title id="journey-title">The servicing journey: Request (the rules), Identify (the assistant), Classify (the assistant), Verify (the rules), Act (the assistant), Record (the assistant), Four eyes (a colleague), Closure (the assistant). Edges: request to identify; identify to classify; classify to verify on address / card / third-party / disclosure / bereavement; verify to act on address / card / third-party; verify to record on disclosure; verify to confirm on bereavement; act to record on update-address / reissue-card / grant-third-party-access / close-account / none; record to close on depends on the case; confirm to record on confirm; confirm to end on return; close to end on depends on the case.</title>
<style>.lane{fill:none;stroke-opacity:.35}.lane-label{stroke:none;font-weight:700}.edge{fill:none;stroke-width:1.5}.edge--case{stroke-dasharray:4 3}.edge--taken{stroke-width:3}.edge-label{stroke:none}.node{fill:none;stroke-width:1.5}.node--lit{stroke-width:3}.node--irreversible{stroke-dasharray:2 2}.node-label{stroke:none;text-anchor:middle}.point{fill:none;stroke-width:1.5}.end{stroke-width:3}</style>
<rect class="lane lane--assistant" x="0" y="16" width="1534" height="100"/>
<text class="lane-label" x="8" y="32">the assistant</text>
<rect class="lane lane--colleague" x="0" y="116" width="1534" height="100"/>
<text class="lane-label" x="8" y="132">a colleague</text>
<rect class="lane lane--rules" x="0" y="216" width="1534" height="100"/>
<text class="lane-label" x="8" y="232">the rules</text>
<path class="edge edge--enumerated" d="M225 266 H278 V66 H331" data-edge="request-&gt;identify"/>
<path class="edge edge--enumerated" d="M375 66 H481" data-edge="identify-&gt;classify"/>
<path class="edge edge--enumerated" d="M525 66 H578 V266 H631" data-edge="classify-&gt;verify"/>
<text class="edge-label" x="584" y="162" text-anchor="start">address / card / third-party / disclosure / bereavement</text>
<path class="edge edge--enumerated" d="M675 266 H728 V66 H781" data-edge="verify-&gt;act"/>
<text class="edge-label" x="734" y="162" text-anchor="start">address / card / third-party</text>
<path class="edge edge--enumerated" d="M675 266 H728 V28 H953 V44" data-edge="verify-&gt;record"/>
<text class="edge-label" x="734" y="24" text-anchor="start">disclosure</text>
<path class="edge edge--enumerated" d="M675 266 H728 V128 H1103 V144" data-edge="verify-&gt;confirm"/>
<text class="edge-label" x="734" y="124" text-anchor="start">bereavement</text>
<path class="edge edge--enumerated" d="M825 66 H931" data-edge="act-&gt;record"/>
<text class="edge-label" x="878" y="58" text-anchor="middle">update-address / reissue-card / grant-third-party-access / close-account / none</text>
<path class="edge edge--case" d="M975 66 H1028 V28 H1253 V44" data-edge="record-&gt;close"/>
<text class="edge-label" x="1034" y="24" text-anchor="start">depends on the case</text>
<path class="edge edge--enumerated" d="M1103 188 V204 H953 V88" data-edge="confirm-&gt;record"/>
<text class="edge-label" x="1028" y="216" text-anchor="middle">confirm</text>
<path class="edge edge--enumerated" d="M1125 166 H1178 V128 H1399" data-edge="confirm-&gt;end"/>
<text class="edge-label" x="1184" y="124" text-anchor="start">return</text>
<path class="edge edge--case" d="M1275 66 H1399" data-edge="close-&gt;end"/>
<text class="edge-label" x="1339" y="58" text-anchor="middle">depends on the case</text>
<line class="end" x1="1403" y1="24" x2="1403" y2="308"/>
<circle class="node node--rule" cx="203" cy="266" r="22" data-stage="request"/>
<text class="node-label" x="203" y="302">Request</text>
<circle class="node node--agent" cx="353" cy="66" r="22" data-stage="identify"/>
<text class="node-label" x="353" y="102">Identify</text>
<circle class="node node--agent" cx="503" cy="66" r="22" data-stage="classify"/>
<text class="node-label" x="503" y="102">Classify</text>
<circle class="node node--rule" cx="653" cy="266" r="22" data-stage="verify"/>
<text class="node-label" x="653" y="302">Verify</text>
<circle class="node node--agent" cx="803" cy="66" r="22" data-stage="act"/>
<text class="node-label" x="803" y="102">Act</text>
<circle class="node node--agent" cx="953" cy="66" r="22" data-stage="record"/>
<text class="node-label" x="953" y="102">Record</text>
<circle class="node node--human" cx="1103" cy="166" r="22" data-stage="confirm"/>
<text class="node-label" x="1103" y="202">Four eyes</text>
<circle class="node node--agent node--irreversible" cx="1253" cy="66" r="22" data-stage="close"/>
<text class="node-label" x="1253" y="102">Closure</text>
<circle class="point point--pre-think" cx="339" cy="34" r="5" data-point="loop:identify:pre-think"/>
<circle class="point point--pre-act" cx="353" cy="34" r="5" data-point="loop:identify:pre-act"/>
<circle class="point point--post-act" cx="367" cy="34" r="5" data-point="loop:identify:post-act"/>
<circle class="point point--pre-think" cx="489" cy="34" r="5" data-point="loop:classify:pre-think"/>
<circle class="point point--pre-act" cx="503" cy="34" r="5" data-point="loop:classify:pre-act"/>
<circle class="point point--post-act" cx="517" cy="34" r="5" data-point="loop:classify:post-act"/>
<circle class="point point--pre-think" cx="789" cy="34" r="5" data-point="loop:act:pre-think"/>
<circle class="point point--pre-act" cx="803" cy="34" r="5" data-point="loop:act:pre-act"/>
<circle class="point point--post-act" cx="817" cy="34" r="5" data-point="loop:act:post-act"/>
<circle class="point point--pre-think" cx="939" cy="34" r="5" data-point="loop:record:pre-think"/>
<circle class="point point--pre-act" cx="953" cy="34" r="5" data-point="loop:record:pre-act"/>
<circle class="point point--post-act" cx="967" cy="34" r="5" data-point="loop:record:post-act"/>
<circle class="point point--pre-think" cx="1239" cy="34" r="5" data-point="loop:close:pre-think"/>
<circle class="point point--pre-act" cx="1253" cy="34" r="5" data-point="loop:close:pre-act"/>
<circle class="point point--post-act" cx="1267" cy="34" r="5" data-point="loop:close:post-act"/>
</svg>
